<svg width="24" height="24" viewBox="0 0 20 20" fill="none" xmlns="http://www.w3.org/2000/svg">
  <path
    d="M12.5013 18.9583H7.5013C2.9763 18.9583 1.04297 17.025 1.04297 12.5V7.49996C1.04297 2.97496 2.9763 1.04163 7.5013 1.04163H12.5013C17.0263 1.04163 18.9596 2.97496 18.9596 7.49996V12.5C18.9596 17.025 17.0263 18.9583 12.5013 18.9583ZM7.5013 2.29163C3.65964 2.29163 2.29297 3.65829 2.29297 7.49996V12.5C2.29297 16.3416 3.65964 17.7083 7.5013 17.7083H12.5013C16.343 17.7083 17.7096 16.3416 17.7096 12.5V7.49996C17.7096 3.65829 16.343 2.29163 12.5013 2.29163H7.5013Z"
    fill="#C2C1C0" />
  <path
    d="M7.4987 8.95833C6.23203 8.95833 5.20703 7.93333 5.20703 6.66667C5.20703 5.4 6.23203 4.375 7.4987 4.375C8.76536 4.375 9.79036 5.4 9.79036 6.66667C9.79036 7.93333 8.76536 8.95833 7.4987 8.95833ZM7.4987 5.625C6.9237 5.625 6.45703 6.09167 6.45703 6.66667C6.45703 7.24167 6.9237 7.70833 7.4987 7.70833C8.0737 7.70833 8.54036 7.24167 8.54036 6.66667C8.54036 6.09167 8.0737 5.625 7.4987 5.625Z"
    fill="#C2C1C0" />
  <path
    d="M2.224 16.4167C2.024 16.4167 1.824 16.3167 1.70733 16.1417C1.51566 15.8583 1.59066 15.4667 1.88233 15.275L5.99066 12.5167C6.89066 11.9083 8.13233 11.9833 8.949 12.675L9.224 12.9167C9.64066 13.275 10.349 13.275 10.7573 12.9167L14.224 9.94167C15.1073 9.18334 16.499 9.18334 17.3907 9.94167L18.749 11.1083C19.0073 11.3333 19.0407 11.725 18.8157 11.9917C18.5907 12.25 18.199 12.2833 17.9323 12.0583L16.574 10.8917C16.1573 10.5333 15.449 10.5333 15.0323 10.8917L11.5657 13.8667C10.6823 14.625 9.29066 14.625 8.399 13.8667L8.124 13.625C7.74066 13.3 7.10733 13.2667 6.68233 13.5583L2.574 16.3167C2.46566 16.3833 2.34066 16.4167 2.224 16.4167Z"
    fill="#C2C1C0" />
</svg>